<svg width="172" height="25" viewBox="0 0 172 25" fill="none" xmlns="http://www.w3.org/2000/svg">
<g clip-path="url(#clip0_41772_53)">
<path d="M7.46143 10.845C8.86264 10.845 9.92756 11.1532 10.6562 11.7698C11.3988 12.3863 11.7701 13.2831 11.7701 14.4601C11.7701 15.8893 11.2447 17.0033 10.1938 17.802C9.15689 18.6007 7.70664 19 5.84304 19H1.78654L1.93367 14.9855L1.78654 5.46433H11.0765L11.2237 5.69553L11.0555 7.77633L7.65059 7.69225H4.62399L4.58195 10.845H7.46143ZM6.62071 17.0663C7.32131 16.9542 7.85377 16.709 8.21808 16.3307C8.59641 15.9384 8.78557 15.4339 8.78557 14.8174C8.78557 14.1728 8.5894 13.6824 8.19706 13.3461C7.81874 12.9958 7.26526 12.8277 6.53663 12.8417L4.53991 12.8837L4.51889 14.7123L4.58195 16.9612L6.62071 17.0663ZM17.8997 9.03741C19.3289 9.03741 20.4219 9.45778 21.1785 10.2985C21.9352 11.1392 22.3135 12.3513 22.3135 13.9346C22.3135 15.6441 21.9072 16.9542 21.0945 17.865C20.2818 18.7618 19.1118 19.2102 17.5844 19.2102C16.1552 19.2102 15.0623 18.7898 14.3056 17.9491C13.549 17.1084 13.1706 15.8963 13.1706 14.313C13.1706 12.6035 13.577 11.3004 14.3897 10.4036C15.2024 9.49281 16.3724 9.03741 17.8997 9.03741ZM17.7106 10.929C17.038 10.929 16.5476 11.1532 16.2393 11.6016C15.945 12.05 15.7979 12.7716 15.7979 13.7665C15.7979 15.0556 15.952 15.9734 16.2603 16.5199C16.5686 17.0663 17.073 17.3396 17.7736 17.3396C18.4462 17.3396 18.9296 17.1224 19.2239 16.688C19.5321 16.2396 19.6863 15.511 19.6863 14.5021C19.6863 13.227 19.5251 12.3162 19.2028 11.7698C18.8946 11.2093 18.3971 10.929 17.7106 10.929ZM29.4221 9.10047C30.6411 9.10047 31.5799 9.51382 32.2385 10.3405C32.8971 11.1672 33.2264 12.3373 33.2264 13.8506C33.2264 15.56 32.799 16.8842 31.9442 17.823C31.1035 18.7478 29.9125 19.2102 28.3712 19.2102C27.9228 19.2102 27.4534 19.1681 26.963 19.0841L27.026 22.8884H24.2516L24.3987 14.9645L24.2726 9.41574L26.9419 9.18454L26.9209 10.6138H27.068C27.4604 10.2354 27.8387 9.93419 28.203 9.70999C28.5673 9.47179 28.9737 9.26861 29.4221 9.10047ZM28.3922 17.3816C29.1208 17.3816 29.6743 17.1224 30.0526 16.6039C30.4309 16.0855 30.6201 15.3218 30.6201 14.313C30.6201 13.3321 30.459 12.5965 30.1367 12.1061C29.8284 11.6016 29.366 11.3494 28.7495 11.3494C28.147 11.3494 27.5375 11.6507 26.9209 12.2532L26.8999 14.6913L26.9419 17.0663C27.4464 17.2765 27.9298 17.3816 28.3922 17.3816ZM35.1952 14.9645L35.048 9.28963L37.8224 9.16352L37.7173 15.2167H37.8855L41.1223 9.22658H43.8967L43.7495 14.6282L43.8967 19H41.1223L41.2484 15.1537V12.8417H41.1012L37.7594 19H35.048L35.1952 14.9645ZM50.4927 9.03741C50.9551 9.03741 51.4105 9.08646 51.8589 9.18454C52.3213 9.26861 52.7277 9.39472 53.078 9.56287L52.6156 11.7908L52.3844 11.8959C51.6697 11.5035 51.0322 11.3074 50.4717 11.3074C49.8272 11.3074 49.3297 11.5386 48.9794 12.001C48.6291 12.4634 48.454 13.1219 48.454 13.9767C48.454 14.9575 48.6431 15.7072 49.0215 16.2256C49.3998 16.7441 49.9393 17.0033 50.6399 17.0033C51.2704 17.0033 51.971 16.8281 52.7417 16.4778L52.9519 16.646L52.6786 18.8108C51.8379 19.0771 50.9762 19.2102 50.0934 19.2102C48.7482 19.2102 47.6973 18.7758 46.9407 17.9071C46.184 17.0243 45.8057 15.7982 45.8057 14.2289C45.8057 12.6035 46.2191 11.3354 47.0458 10.4246C47.8725 9.49981 49.0215 9.03741 50.4927 9.03741ZM72.7659 11.8749C72.7659 13.7104 72.2264 15.1046 71.1475 16.0575C70.0685 17.0103 68.4852 17.5638 66.3974 17.7179L66.4394 19.5675H63.8121L63.8542 17.7389C61.7804 17.6128 60.204 17.0874 59.1251 16.1626C58.0602 15.2237 57.5277 13.8926 57.5277 12.1691C57.5277 10.3475 58.0532 8.96735 59.1041 8.02854C60.169 7.07572 61.7454 6.52225 63.8332 6.36811L63.8121 4.85481H66.4814L66.4604 6.34709C70.6641 6.62734 72.7659 8.46992 72.7659 11.8749ZM60.218 12.043C60.218 13.178 60.5123 14.0327 61.1008 14.6072C61.7033 15.1817 62.6421 15.525 63.9172 15.6371L63.9383 14.9435L63.8542 8.44891C62.6211 8.57501 61.7033 8.93232 61.1008 9.52083C60.5123 10.0953 60.218 10.936 60.218 12.043ZM66.3764 15.6371C67.6234 15.525 68.5412 15.1887 69.1297 14.6282C69.7322 14.0537 70.0335 13.199 70.0335 12.064C70.0335 10.9431 69.7463 10.0953 69.1718 9.52083C68.5973 8.93232 67.6865 8.57501 66.4394 8.44891L66.3553 14.6913L66.3764 15.6371ZM82.1637 14.4601L76.4889 14.5021C76.615 16.2536 77.5047 17.1294 79.1582 17.1294C80.0269 17.1294 80.9937 16.8842 82.0587 16.3938L82.2899 16.5409L81.8695 18.6217C80.8046 19.014 79.8027 19.2102 78.8639 19.2102C77.3226 19.2102 76.1105 18.7618 75.2278 17.865C74.359 16.9682 73.9246 15.7282 73.9246 14.1448C73.9246 12.5755 74.352 11.3354 75.2068 10.4246C76.0615 9.49981 77.2175 9.03741 78.6747 9.03741C79.9218 9.03741 80.8816 9.38071 81.5542 10.0673C82.2408 10.7399 82.5841 11.6857 82.5841 12.9047C82.5841 13.227 82.5491 13.6334 82.479 14.1238L82.1637 14.4601ZM80.146 12.5895C80.146 12.029 80.0199 11.6086 79.7677 11.3284C79.5155 11.0341 79.1441 10.887 78.6537 10.887C78.1073 10.887 77.6519 11.0692 77.2875 11.4335C76.9232 11.7838 76.678 12.2952 76.5519 12.9678L80.104 12.8837L80.146 12.5895ZM94.0327 17.0033V21.4171L92.2462 21.5642L91.9099 19H85.5624L85.2472 21.4171L83.4606 21.5642V17.0033H84.1963C84.6166 16.7511 84.9459 16.4288 85.1841 16.0364C85.4223 15.6301 85.6115 15.0626 85.7516 14.334C85.9057 13.6054 86.0599 12.5474 86.214 11.1602L86.4242 9.24759H92.8557L92.7296 14.6913L92.7927 17.0033H94.0327ZM90.2495 14.9645L90.1864 11.0552H88.3789L88.3158 11.6016C88.1477 13.157 87.9445 14.341 87.7063 15.1537C87.4681 15.9664 87.1388 16.5829 86.7184 17.0033H90.1864L90.2495 14.9645ZM99.9812 9.03741C101.41 9.03741 102.503 9.45778 103.26 10.2985C104.017 11.1392 104.395 12.3513 104.395 13.9346C104.395 15.6441 103.989 16.9542 103.176 17.865C102.363 18.7618 101.193 19.2102 99.6659 19.2102C98.2367 19.2102 97.1437 18.7898 96.3871 17.9491C95.6304 17.1084 95.2521 15.8963 95.2521 14.313C95.2521 12.6035 95.6585 11.3004 96.4712 10.4036C97.2839 9.49281 98.4539 9.03741 99.9812 9.03741ZM99.792 10.929C99.1195 10.929 98.629 11.1532 98.3208 11.6016C98.0265 12.05 97.8794 12.7716 97.8794 13.7665C97.8794 15.0556 98.0335 15.9734 98.3418 16.5199C98.65 17.0663 99.1545 17.3396 99.8551 17.3396C100.528 17.3396 101.011 17.1224 101.305 16.688C101.614 16.2396 101.768 15.511 101.768 14.5021C101.768 13.227 101.607 12.3162 101.284 11.7698C100.976 11.2093 100.479 10.929 99.792 10.929ZM111.504 9.10047C112.723 9.10047 113.661 9.51382 114.32 10.3405C114.979 11.1672 115.308 12.3373 115.308 13.8506C115.308 15.56 114.88 16.8842 114.026 17.823C113.185 18.7478 111.994 19.2102 110.453 19.2102C110.004 19.2102 109.535 19.1681 109.044 19.0841L109.107 22.8884H106.333L106.48 14.9645L106.354 9.41574L109.023 9.18454L109.002 10.6138H109.15C109.542 10.2354 109.92 9.93419 110.285 9.70999C110.649 9.47179 111.055 9.26861 111.504 9.10047ZM110.474 17.3816C111.202 17.3816 111.756 17.1224 112.134 16.6039C112.512 16.0855 112.702 15.3218 112.702 14.313C112.702 13.3321 112.54 12.5965 112.218 12.1061C111.91 11.6016 111.448 11.3494 110.831 11.3494C110.228 11.3494 109.619 11.6507 109.002 12.2532L108.981 14.6913L109.023 17.0663C109.528 17.2765 110.011 17.3816 110.474 17.3816ZM121.225 9.03741C122.654 9.03741 123.747 9.45778 124.504 10.2985C125.261 11.1392 125.639 12.3513 125.639 13.9346C125.639 15.6441 125.233 16.9542 124.42 17.865C123.607 18.7618 122.437 19.2102 120.91 19.2102C119.481 19.2102 118.388 18.7898 117.631 17.9491C116.874 17.1084 116.496 15.8963 116.496 14.313C116.496 12.6035 116.902 11.3004 117.715 10.4036C118.528 9.49281 119.698 9.03741 121.225 9.03741ZM121.036 10.929C120.363 10.929 119.873 11.1532 119.565 11.6016C119.27 12.05 119.123 12.7716 119.123 13.7665C119.123 15.0556 119.277 15.9734 119.586 16.5199C119.894 17.0663 120.398 17.3396 121.099 17.3396C121.772 17.3396 122.255 17.1224 122.549 16.688C122.857 16.2396 123.012 15.511 123.012 14.5021C123.012 13.227 122.85 12.3162 122.528 11.7698C122.22 11.2093 121.723 10.929 121.036 10.929ZM133.78 13.9557C135.069 14.2779 135.714 15.0276 135.714 16.2046C135.714 17.1994 135.315 17.9281 134.516 18.3905C133.717 18.8529 132.533 19.0841 130.964 19.0841C130.221 19.0841 129.051 19.056 127.454 19L127.601 14.9645L127.496 9.22658H131.868C132.989 9.22658 133.85 9.43676 134.453 9.85712C135.055 10.2775 135.357 10.887 135.357 11.6857C135.357 12.1761 135.217 12.6245 134.936 13.0309C134.67 13.4232 134.285 13.7315 133.78 13.9557ZM130.817 10.866C130.508 10.866 130.263 10.873 130.081 10.887L130.039 13.3251L131.636 13.3882C132.421 13.178 132.813 12.7296 132.813 12.043C132.813 11.6226 132.659 11.3214 132.351 11.1392C132.057 10.9571 131.545 10.866 130.817 10.866ZM131.321 17.4657C131.91 17.4657 132.365 17.3536 132.687 17.1294C133.01 16.8912 133.171 16.5479 133.171 16.0995C133.171 15.7772 133.073 15.525 132.877 15.3428C132.68 15.1467 132.365 15.0066 131.931 14.9225L129.997 14.9435L130.06 17.3816C130.466 17.4377 130.887 17.4657 131.321 17.4657ZM137.72 14.9645L137.573 9.28963L140.347 9.16352L140.242 15.2167H140.41L143.647 9.22658H146.422L146.274 14.6282L146.422 19H143.647L143.773 15.1537V12.8417H143.626L140.284 19H137.573L137.72 14.9645ZM156.549 14.6913L156.675 19H153.9L154.005 15.0276H153.837C153.221 15.532 152.555 15.9103 151.841 16.1626C150.664 16.1626 149.809 15.9243 149.276 15.4479C148.744 14.9715 148.464 14.2149 148.436 13.178L148.373 9.22658H151.126L151.063 12.6105C151.049 13.5633 151.462 14.0397 152.303 14.0397C152.877 14.0397 153.438 13.8155 153.984 13.3671L153.921 9.22658H156.696L156.549 14.6913Z" fill="#292929"/>
<path d="M167.5 17L163.603 10.25L171.397 10.25L167.5 17Z" fill="#292929"/>
</g>
<defs>
<clipPath id="clip0_41772_53">
<rect width="172" height="25" fill="white"/>
</clipPath>
</defs>
</svg>
