<svg width="160" height="25" viewBox="0 0 160 25" fill="none" xmlns="http://www.w3.org/2000/svg">
<g clip-path="url(#clip0_41772_207)">
<path d="M2.41266 14.9645L2.26554 5.54841L5.16604 5.40128L4.97687 14.6703H5.18705L10.6728 5.46433H13.6994L13.5523 14.7123L13.6574 19H10.7989L10.925 14.9645L10.946 9.79407H10.7569L5.22909 19H2.26554L2.41266 14.9645ZM25.4497 14.6913L25.5548 19H22.7804L22.9065 15.1747L21.0779 15.1537L19.3754 15.1957L19.4805 19H16.6851L16.8322 14.9645L16.7271 9.22658H19.4805L19.3964 13.0939L21.204 13.1149H22.8855L22.8224 9.22658H25.5548L25.4497 14.6913ZM34.5904 9.41574L34.4223 11.2233L32.2154 11.1602H30.9122L30.8282 14.6913L30.9543 19H28.1589L28.306 14.9645L28.2009 9.22658H34.4433L34.5904 9.41574ZM42.2029 13.9557C43.492 14.2779 44.1366 15.0276 44.1366 16.2046C44.1366 17.1994 43.7372 17.9281 42.9385 18.3905C42.1399 18.8529 40.9558 19.0841 39.3865 19.0841C38.6438 19.0841 37.4738 19.056 35.8765 19L36.0236 14.9645L35.9185 9.22658H40.2903C41.4112 9.22658 42.273 9.43676 42.8755 9.85712C43.478 10.2775 43.7793 10.887 43.7793 11.6857C43.7793 12.1761 43.6391 12.6245 43.3589 13.0309C43.0927 13.4232 42.7073 13.7315 42.2029 13.9557ZM39.2394 10.866C38.9311 10.866 38.6859 10.873 38.5037 10.887L38.4617 13.3251L40.0591 13.3882C40.8437 13.178 41.2361 12.7296 41.2361 12.043C41.2361 11.6226 41.0819 11.3214 40.7737 11.1392C40.4794 10.9571 39.968 10.866 39.2394 10.866ZM39.7438 17.4657C40.3323 17.4657 40.7877 17.3536 41.11 17.1294C41.4322 16.8912 41.5934 16.5479 41.5934 16.0995C41.5934 15.7772 41.4953 15.525 41.2991 15.3428C41.103 15.1467 40.7877 15.0066 40.3533 14.9225L38.4197 14.9435L38.4827 17.3816C38.8891 17.4377 39.3094 17.4657 39.7438 17.4657ZM49.8389 9.03741C50.9178 9.03741 51.7585 9.28262 52.3611 9.77305C52.9776 10.2495 53.2859 10.922 53.2859 11.7908C53.2859 12.043 53.2438 12.8417 53.1598 14.1869C53.1457 14.5792 53.1247 14.9855 53.0967 15.4059C53.0687 15.8123 53.0547 16.1626 53.0547 16.4568C53.0547 16.695 53.0897 16.8632 53.1598 16.9612C53.2298 17.0453 53.3559 17.0874 53.5381 17.0874C53.6782 17.0874 53.8604 17.0593 54.0846 17.0033L54.2947 17.1714L54.0425 18.6427C53.5941 18.9369 53.0827 19.1121 52.5082 19.1681C52.0878 19.1261 51.7375 18.979 51.4573 18.7268C51.177 18.4605 50.9879 18.0962 50.8898 17.6338H50.7427C50.0421 18.3765 49.3204 18.8949 48.5778 19.1892C47.5689 19.1752 46.7773 18.9089 46.2028 18.3905C45.6283 17.872 45.341 17.1644 45.341 16.2676C45.341 15.567 45.5162 15.0206 45.8665 14.6282C46.2308 14.2219 46.7773 13.9486 47.5059 13.8085L50.7217 13.199V12.3373C50.7217 11.4265 50.2733 10.9711 49.3765 10.9711C48.9421 10.9711 48.4797 11.0692 47.9893 11.2653C47.5129 11.4615 46.9734 11.7698 46.3709 12.1901L46.1607 12.064L45.8454 10.2144C46.448 9.8361 47.0925 9.54885 47.7791 9.35269C48.4657 9.1425 49.1523 9.03741 49.8389 9.03741ZM48.4727 15.0906C48.2485 15.1467 48.0804 15.2448 47.9683 15.3849C47.8702 15.511 47.8212 15.7072 47.8212 15.9734C47.8212 16.3377 47.9192 16.625 48.1154 16.8351C48.3116 17.0313 48.5848 17.1294 48.9351 17.1294C49.4816 17.1294 50.0561 16.8071 50.6586 16.1626L50.7006 14.6072L48.4727 15.0906ZM61.244 9.10047C62.4631 9.10047 63.4019 9.51382 64.0604 10.3405C64.719 11.1672 65.0483 12.3373 65.0483 13.8506C65.0483 15.56 64.6209 16.8842 63.7662 17.823C62.9255 18.7478 61.7344 19.2102 60.1931 19.2102C59.7447 19.2102 59.2753 19.1681 58.7849 19.0841L58.8479 22.8884H56.0736L56.2207 14.9645L56.0946 9.41574L58.7639 9.18454L58.7429 10.6138H58.89C59.2823 10.2354 59.6606 9.93419 60.025 9.70999C60.3893 9.47179 60.7956 9.26861 61.244 9.10047ZM60.2141 17.3816C60.9427 17.3816 61.4962 17.1224 61.8746 16.6039C62.2529 16.0855 62.442 15.3218 62.442 14.313C62.442 13.3321 62.2809 12.5965 61.9586 12.1061C61.6504 11.6016 61.188 11.3494 60.5714 11.3494C59.9689 11.3494 59.3594 11.6507 58.7429 12.2532L58.7218 14.6913L58.7639 17.0663C59.2683 17.2765 59.7517 17.3816 60.2141 17.3816ZM81.8186 14.7123L81.9027 19H79.0652L79.1913 14.9645L79.1703 13.3882L76.1227 13.3671L73.3693 13.4092L73.3483 14.7123L73.4534 19H70.616L70.7631 14.9645L70.616 5.46433H73.4954L73.4114 11.0552L76.3119 11.0972L79.1493 11.0552L79.0652 5.46433H81.9657L81.8186 14.7123ZM85.1001 14.9645L84.9529 9.28963L87.7273 9.16352L87.6222 15.2167H87.7904L91.0272 9.22658H93.8016L93.6544 14.6282L93.8016 19H91.0272L91.1533 15.1537V12.8417H91.0061L87.6643 19H84.9529L85.1001 14.9645ZM104.282 14.6913L104.387 19H101.612L101.738 14.9645L101.675 11.0762H99.9098L99.8467 11.6226C99.6085 13.6124 99.3493 15.1327 99.0691 16.1836C98.8028 17.2345 98.4665 17.9911 98.0602 18.4535C97.6538 18.9019 97.1074 19.1611 96.4208 19.2312H95.7902L95.3909 17.0874C95.8953 16.9332 96.2877 16.667 96.5679 16.2887C96.8481 15.9103 97.0793 15.3358 97.2615 14.5652C97.4437 13.7805 97.6118 12.6455 97.7659 11.1602L97.9761 9.26861L97.9551 9.22658H104.408L104.282 14.6913ZM111.811 12.7997C112.918 12.7997 113.759 13.0309 114.333 13.4933C114.922 13.9416 115.216 14.6002 115.216 15.469C115.216 16.5759 114.803 17.4447 113.976 18.0752C113.149 18.6917 112.014 19 110.571 19H106.977L107.124 14.9645L107.019 9.22658H109.772L109.688 12.7997H111.811ZM111.159 17.3186C111.608 17.2345 111.951 17.0593 112.189 16.7931C112.442 16.5129 112.568 16.1766 112.568 15.7842C112.568 15.3639 112.427 15.0346 112.147 14.7964C111.881 14.5442 111.51 14.4251 111.033 14.4391L109.646 14.4601V14.6913L109.73 17.2555L111.159 17.3186ZM120.615 9.03741C121.078 9.03741 121.533 9.08646 121.981 9.18454C122.444 9.26861 122.85 9.39472 123.2 9.56287L122.738 11.7908L122.507 11.8959C121.792 11.5035 121.155 11.3074 120.594 11.3074C119.95 11.3074 119.452 11.5386 119.102 12.001C118.752 12.4634 118.576 13.1219 118.576 13.9767C118.576 14.9575 118.766 15.7072 119.144 16.2256C119.522 16.7441 120.062 17.0033 120.762 17.0033C121.393 17.0033 122.094 16.8281 122.864 16.4778L123.074 16.646L122.801 18.8108C121.96 19.0771 121.099 19.2102 120.216 19.2102C118.871 19.2102 117.82 18.7758 117.063 17.9071C116.307 17.0243 115.928 15.7982 115.928 14.2289C115.928 12.6035 116.342 11.3354 117.168 10.4246C117.995 9.49981 119.144 9.03741 120.615 9.03741ZM129.135 9.03741C130.564 9.03741 131.657 9.45778 132.414 10.2985C133.17 11.1392 133.549 12.3513 133.549 13.9346C133.549 15.6441 133.142 16.9542 132.33 17.865C131.517 18.7618 130.347 19.2102 128.82 19.2102C127.39 19.2102 126.297 18.7898 125.541 17.9491C124.784 17.1084 124.406 15.8963 124.406 14.313C124.406 12.6035 124.812 11.3004 125.625 10.4036C126.437 9.49281 127.607 9.03741 129.135 9.03741ZM128.946 10.929C128.273 10.929 127.783 11.1532 127.474 11.6016C127.18 12.05 127.033 12.7716 127.033 13.7665C127.033 15.0556 127.187 15.9734 127.495 16.5199C127.804 17.0663 128.308 17.3396 129.009 17.3396C129.681 17.3396 130.165 17.1224 130.459 16.688C130.767 16.2396 130.921 15.511 130.921 14.5021C130.921 13.227 130.76 12.3162 130.438 11.7698C130.13 11.2093 129.632 10.929 128.946 10.929ZM144.128 14.6913L144.233 19H141.459L141.585 15.1747L139.756 15.1537L138.054 15.1957L138.159 19H135.364L135.511 14.9645L135.406 9.22658H138.159L138.075 13.0939L139.882 13.1149H141.564L141.501 9.22658H144.233L144.128 14.6913Z" fill="#292929"/>
<path d="M155 10.5L158.897 17.25H151.103L155 10.5Z" fill="#292929"/>
</g>
<defs>
<clipPath id="clip0_41772_207">
<rect width="159" height="25" fill="white" transform="translate(0.500015)"/>
</clipPath>
</defs>
</svg>
