<svg width="188" height="25" viewBox="0 0 188 25" fill="none" xmlns="http://www.w3.org/2000/svg">
<g clip-path="url(#clip0_41772_266)">
<path d="M10.7989 16.646L10.967 16.8772L10.7779 19H2.28654L2.43367 14.9645L2.28654 5.46433H10.8619L11.0301 5.69553L10.8199 7.81836L7.5831 7.71327L5.145 7.73429L5.08195 10.9921L7.41496 11.0341L9.62186 10.9711L9.79001 11.1813L9.60084 13.3041L7.20478 13.241L5.03991 13.2621L5.01889 14.7123L5.08195 16.7511L7.457 16.7721L10.7989 16.646ZM13.1982 14.9645L13.1142 9.41574L15.8675 9.18454L15.7624 14.6913L15.8465 19H13.0721L13.1982 14.9645ZM18.5578 13.6404C19.3425 14.8734 20.4845 16.5059 21.9838 18.5376V18.8319C21.4934 18.944 20.9679 19.028 20.4074 19.0841C19.861 19.1541 19.5247 19.1962 19.3986 19.2102L19.1043 19.0841C17.8432 17.2905 16.7713 15.56 15.8885 13.8926V13.7034L18.3687 10.2354L18.8731 9.22658H21.7736L18.5578 13.6404ZM26.9119 9.03741C27.9908 9.03741 28.8315 9.28262 29.4341 9.77305C30.0506 10.2495 30.3589 10.922 30.3589 11.7908C30.3589 12.043 30.3168 12.8417 30.2328 14.1869C30.2187 14.5792 30.1977 14.9855 30.1697 15.4059C30.1417 15.8123 30.1277 16.1626 30.1277 16.4568C30.1277 16.695 30.1627 16.8632 30.2328 16.9612C30.3028 17.0453 30.4289 17.0874 30.6111 17.0874C30.7512 17.0874 30.9334 17.0593 31.1575 17.0033L31.3677 17.1714L31.1155 18.6427C30.6671 18.9369 30.1557 19.1121 29.5812 19.1681C29.1608 19.1261 28.8105 18.979 28.5303 18.7268C28.25 18.4605 28.0609 18.0962 27.9628 17.6338H27.8157C27.1151 18.3765 26.3934 18.8949 25.6508 19.1892C24.6419 19.1752 23.8503 18.9089 23.2758 18.3905C22.7013 17.872 22.414 17.1644 22.414 16.2676C22.414 15.567 22.5892 15.0206 22.9395 14.6282C23.3038 14.2219 23.8503 13.9486 24.5789 13.8085L27.7947 13.199V12.3373C27.7947 11.4265 27.3463 10.9711 26.4495 10.9711C26.0151 10.9711 25.5527 11.0692 25.0623 11.2653C24.5859 11.4615 24.0464 11.7698 23.4439 12.1901L23.2337 12.064L22.9184 10.2144C23.521 9.8361 24.1655 9.54885 24.8521 9.35269C25.5387 9.1425 26.2253 9.03741 26.9119 9.03741ZM25.5457 15.0906C25.3215 15.1467 25.1534 15.2448 25.0413 15.3849C24.9432 15.511 24.8942 15.7072 24.8942 15.9734C24.8942 16.3377 24.9922 16.625 25.1884 16.8351C25.3846 17.0313 25.6578 17.1294 26.0081 17.1294C26.5546 17.1294 27.1291 16.8071 27.7316 16.1626L27.7736 14.6072L25.5457 15.0906ZM39.9388 9.41574L39.7707 11.2233L37.837 11.1602H37.1224L37.0383 14.6913L37.1645 19H34.3901L34.5162 14.9645L34.4531 11.1602H33.6965L31.7628 11.2233L31.6157 11.0341L31.7418 9.22658H39.7707L39.9388 9.41574ZM48.5298 14.4601L42.8549 14.5021C42.9811 16.2536 43.8708 17.1294 45.5242 17.1294C46.393 17.1294 47.3598 16.8842 48.4247 16.3938L48.6559 16.5409L48.2356 18.6217C47.1707 19.014 46.1688 19.2102 45.23 19.2102C43.6887 19.2102 42.4766 18.7618 41.5939 17.865C40.7251 16.9682 40.2907 15.7282 40.2907 14.1448C40.2907 12.5755 40.7181 11.3354 41.5728 10.4246C42.4276 9.49981 43.5836 9.03741 45.0408 9.03741C46.2879 9.03741 47.2477 9.38071 47.9203 10.0673C48.6069 10.7399 48.9502 11.6857 48.9502 12.9047C48.9502 13.227 48.9152 13.6334 48.8451 14.1238L48.5298 14.4601ZM46.5121 12.5895C46.5121 12.029 46.386 11.6086 46.1338 11.3284C45.8816 11.0341 45.5102 10.887 45.0198 10.887C44.4733 10.887 44.018 11.0692 43.6536 11.4335C43.2893 11.7838 43.0441 12.2952 42.918 12.9678L46.4701 12.8837L46.5121 12.5895ZM56.1742 9.10047C57.3932 9.10047 58.3321 9.51382 58.9906 10.3405C59.6492 11.1672 59.9785 12.3373 59.9785 13.8506C59.9785 15.56 59.5511 16.8842 58.6964 17.823C57.8556 18.7478 56.6646 19.2102 55.1233 19.2102C54.6749 19.2102 54.2055 19.1681 53.7151 19.0841L53.7781 22.8884H51.0037L51.1509 14.9645L51.0248 9.41574L53.6941 9.18454L53.673 10.6138H53.8202C54.2125 10.2354 54.5908 9.93419 54.9551 9.70999C55.3195 9.47179 55.7258 9.26861 56.1742 9.10047ZM55.1443 17.3816C55.8729 17.3816 56.4264 17.1224 56.8047 16.6039C57.1831 16.0855 57.3722 15.3218 57.3722 14.313C57.3722 13.3321 57.2111 12.5965 56.8888 12.1061C56.5805 11.6016 56.1181 11.3494 55.5016 11.3494C54.8991 11.3494 54.2896 11.6507 53.673 12.2532L53.652 14.6913L53.6941 17.0663C54.1985 17.2765 54.6819 17.3816 55.1443 17.3816ZM61.9473 14.9645L61.8002 9.28963L64.5745 9.16352L64.4695 15.2167H64.6376L67.8744 9.22658H70.6488L70.5017 14.6282L70.6488 19H67.8744L68.0005 15.1537V12.8417H67.8534L64.5115 19H61.8002L61.9473 14.9645ZM81.9769 14.6913L82.082 19H79.3076L79.4337 15.1747L77.6051 15.1537L75.9027 15.1957L76.0077 19H73.2123L73.3595 14.9645L73.2544 9.22658H76.0077L75.9237 13.0939L77.7312 13.1149H79.4127L79.3496 9.22658H82.082L81.9769 14.6913ZM88.5294 9.03741C89.6084 9.03741 90.4491 9.28262 91.0516 9.77305C91.6682 10.2495 91.9764 10.922 91.9764 11.7908C91.9764 12.043 91.9344 12.8417 91.8503 14.1869C91.8363 14.5792 91.8153 14.9855 91.7873 15.4059C91.7592 15.8123 91.7452 16.1626 91.7452 16.4568C91.7452 16.695 91.7802 16.8632 91.8503 16.9612C91.9204 17.0453 92.0465 17.0874 92.2286 17.0874C92.3688 17.0874 92.5509 17.0593 92.7751 17.0033L92.9853 17.1714L92.7331 18.6427C92.2847 18.9369 91.7732 19.1121 91.1987 19.1681C90.7784 19.1261 90.4281 18.979 90.1478 18.7268C89.8676 18.4605 89.6784 18.0962 89.5804 17.6338H89.4332C88.7326 18.3765 88.011 18.8949 87.2684 19.1892C86.2595 19.1752 85.4678 18.9089 84.8933 18.3905C84.3188 17.872 84.0316 17.1644 84.0316 16.2676C84.0316 15.567 84.2067 15.0206 84.557 14.6282C84.9213 14.2219 85.4678 13.9486 86.1964 13.8085L89.4122 13.199V12.3373C89.4122 11.4265 88.9638 10.9711 88.067 10.9711C87.6327 10.9711 87.1703 11.0692 86.6799 11.2653C86.2034 11.4615 85.664 11.7698 85.0615 12.1901L84.8513 12.064L84.536 10.2144C85.1385 9.8361 85.7831 9.54885 86.4697 9.35269C87.1563 9.1425 87.8429 9.03741 88.5294 9.03741ZM87.1633 15.0906C86.9391 15.1467 86.7709 15.2448 86.6588 15.3849C86.5607 15.511 86.5117 15.7072 86.5117 15.9734C86.5117 16.3377 86.6098 16.625 86.806 16.8351C87.0021 17.0313 87.2754 17.1294 87.6257 17.1294C88.1721 17.1294 88.7466 16.8071 89.3492 16.1626L89.3912 14.6072L87.1633 15.0906ZM98.5131 14.9645L98.3659 5.54841L101.266 5.40128L101.077 14.6703H101.287L106.773 5.46433H109.8L109.653 14.7123L109.758 19H106.899L107.025 14.9645L107.046 9.79407H106.857L101.329 19H98.3659L98.5131 14.9645ZM119.112 13.9557C120.401 14.2779 121.046 15.0276 121.046 16.2046C121.046 17.1994 120.646 17.9281 119.848 18.3905C119.049 18.8529 117.865 19.0841 116.296 19.0841C115.553 19.0841 114.383 19.056 112.785 19L112.933 14.9645L112.828 9.22658H117.199C118.32 9.22658 119.182 9.43676 119.785 9.85712C120.387 10.2775 120.688 10.887 120.688 11.6857C120.688 12.1761 120.548 12.6245 120.268 13.0309C120.002 13.4232 119.616 13.7315 119.112 13.9557ZM116.148 10.866C115.84 10.866 115.595 10.873 115.413 10.887L115.371 13.3251L116.968 13.3882C117.753 13.178 118.145 12.7296 118.145 12.043C118.145 11.6226 117.991 11.3214 117.683 11.1392C117.388 10.9571 116.877 10.866 116.148 10.866ZM116.653 17.4657C117.241 17.4657 117.697 17.3536 118.019 17.1294C118.341 16.8912 118.502 16.5479 118.502 16.0995C118.502 15.7772 118.404 15.525 118.208 15.3428C118.012 15.1467 117.697 15.0066 117.262 14.9225L115.329 14.9435L115.392 17.3816C115.798 17.4377 116.218 17.4657 116.653 17.4657ZM126.748 9.03741C127.827 9.03741 128.668 9.28262 129.27 9.77305C129.887 10.2495 130.195 10.922 130.195 11.7908C130.195 12.043 130.153 12.8417 130.069 14.1869C130.055 14.5792 130.034 14.9855 130.006 15.4059C129.978 15.8123 129.964 16.1626 129.964 16.4568C129.964 16.695 129.999 16.8632 130.069 16.9612C130.139 17.0453 130.265 17.0874 130.447 17.0874C130.587 17.0874 130.769 17.0593 130.994 17.0033L131.204 17.1714L130.952 18.6427C130.503 18.9369 129.992 19.1121 129.417 19.1681C128.997 19.1261 128.647 18.979 128.366 18.7268C128.086 18.4605 127.897 18.0962 127.799 17.6338H127.652C126.951 18.3765 126.229 18.8949 125.487 19.1892C124.478 19.1752 123.686 18.9089 123.112 18.3905C122.537 17.872 122.25 17.1644 122.25 16.2676C122.25 15.567 122.425 15.0206 122.776 14.6282C123.14 14.2219 123.686 13.9486 124.415 13.8085L127.631 13.199V12.3373C127.631 11.4265 127.182 10.9711 126.286 10.9711C125.851 10.9711 125.389 11.0692 124.898 11.2653C124.422 11.4615 123.882 11.7698 123.28 12.1901L123.07 12.064L122.754 10.2144C123.357 9.8361 124.002 9.54885 124.688 9.35269C125.375 9.1425 126.061 9.03741 126.748 9.03741ZM125.382 15.0906C125.158 15.1467 124.989 15.2448 124.877 15.3849C124.779 15.511 124.73 15.7072 124.73 15.9734C124.73 16.3377 124.828 16.625 125.024 16.8351C125.221 17.0313 125.494 17.1294 125.844 17.1294C126.391 17.1294 126.965 16.8071 127.568 16.1626L127.61 14.6072L125.382 15.0906ZM141.624 14.6913L141.729 19H138.955L139.081 15.1747L137.252 15.1537L135.55 15.1957L135.655 19H132.859L133.007 14.9645L132.901 9.22658H135.655L135.571 13.0939L137.378 13.1149H139.06L138.997 9.22658H141.729L141.624 14.6913ZM148.429 9.03741C149.858 9.03741 150.951 9.45778 151.708 10.2985C152.464 11.1392 152.843 12.3513 152.843 13.9346C152.843 15.6441 152.436 16.9542 151.624 17.865C150.811 18.7618 149.641 19.2102 148.114 19.2102C146.684 19.2102 145.591 18.7898 144.835 17.9491C144.078 17.1084 143.7 15.8963 143.7 14.313C143.7 12.6035 144.106 11.3004 144.919 10.4036C145.731 9.49281 146.901 9.03741 148.429 9.03741ZM148.24 10.929C147.567 10.929 147.077 11.1532 146.768 11.6016C146.474 12.05 146.327 12.7716 146.327 13.7665C146.327 15.0556 146.481 15.9734 146.789 16.5199C147.098 17.0663 147.602 17.3396 148.303 17.3396C148.975 17.3396 149.459 17.1224 149.753 16.688C150.061 16.2396 150.215 15.511 150.215 14.5021C150.215 13.227 150.054 12.3162 149.732 11.7698C149.424 11.2093 148.926 10.929 148.24 10.929ZM160.984 13.9557C162.273 14.2779 162.918 15.0276 162.918 16.2046C162.918 17.1994 162.518 17.9281 161.72 18.3905C160.921 18.8529 159.737 19.0841 158.168 19.0841C157.425 19.0841 156.255 19.056 154.658 19L154.805 14.9645L154.7 9.22658H159.071C160.192 9.22658 161.054 9.43676 161.657 9.85712C162.259 10.2775 162.56 10.887 162.56 11.6857C162.56 12.1761 162.42 12.6245 162.14 13.0309C161.874 13.4232 161.488 13.7315 160.984 13.9557ZM158.02 10.866C157.712 10.866 157.467 10.873 157.285 10.887L157.243 13.3251L158.84 13.3882C159.625 13.178 160.017 12.7296 160.017 12.043C160.017 11.6226 159.863 11.3214 159.555 11.1392C159.26 10.9571 158.749 10.866 158.02 10.866ZM158.525 17.4657C159.113 17.4657 159.569 17.3536 159.891 17.1294C160.213 16.8912 160.374 16.5479 160.374 16.0995C160.374 15.7772 160.276 15.525 160.08 15.3428C159.884 15.1467 159.569 15.0066 159.134 14.9225L157.201 14.9435L157.264 17.3816C157.67 17.4377 158.09 17.4657 158.525 17.4657ZM168.62 9.03741C169.699 9.03741 170.54 9.28262 171.142 9.77305C171.759 10.2495 172.067 10.922 172.067 11.7908C172.067 12.043 172.025 12.8417 171.941 14.1869C171.927 14.5792 171.906 14.9855 171.878 15.4059C171.85 15.8123 171.836 16.1626 171.836 16.4568C171.836 16.695 171.871 16.8632 171.941 16.9612C172.011 17.0453 172.137 17.0874 172.319 17.0874C172.459 17.0874 172.641 17.0593 172.866 17.0033L173.076 17.1714L172.824 18.6427C172.375 18.9369 171.864 19.1121 171.289 19.1681C170.869 19.1261 170.519 18.979 170.238 18.7268C169.958 18.4605 169.769 18.0962 169.671 17.6338H169.524C168.823 18.3765 168.102 18.8949 167.359 19.1892C166.35 19.1752 165.558 18.9089 164.984 18.3905C164.409 17.872 164.122 17.1644 164.122 16.2676C164.122 15.567 164.297 15.0206 164.648 14.6282C165.012 14.2219 165.558 13.9486 166.287 13.8085L169.503 13.199V12.3373C169.503 11.4265 169.054 10.9711 168.158 10.9711C167.723 10.9711 167.261 11.0692 166.77 11.2653C166.294 11.4615 165.754 11.7698 165.152 12.1901L164.942 12.064L164.627 10.2144C165.229 9.8361 165.874 9.54885 166.56 9.35269C167.247 9.1425 167.933 9.03741 168.62 9.03741ZM167.254 15.0906C167.03 15.1467 166.861 15.2448 166.749 15.3849C166.651 15.511 166.602 15.7072 166.602 15.9734C166.602 16.3377 166.7 16.625 166.896 16.8351C167.093 17.0313 167.366 17.1294 167.716 17.1294C168.263 17.1294 168.837 16.8071 169.44 16.1626L169.482 14.6072L167.254 15.0906Z" fill="#292929"/>
<path d="M183 17L179.103 10.25L186.897 10.25L183 17Z" fill="#292929"/>
</g>
<defs>
<clipPath id="clip0_41772_266">
<rect width="187" height="25" fill="white" transform="translate(0.5)"/>
</clipPath>
</defs>
</svg>
