<svg width="164" height="25" viewBox="0 0 164 25" fill="none" xmlns="http://www.w3.org/2000/svg">
<g clip-path="url(#clip0_41772_250)">
<path d="M7.79329 5.27517C9.69893 5.27517 11.1632 5.85667 12.1861 7.01967C13.223 8.16866 13.7414 9.80808 13.7414 11.9379C13.7414 14.2639 13.1809 16.0575 12.06 17.3186C10.939 18.5796 9.35563 19.2102 7.30987 19.2102C5.41824 19.2102 3.95398 18.6217 2.91708 17.4447C1.8942 16.2536 1.38276 14.5722 1.38276 12.4003C1.38276 10.1163 1.93624 8.35783 3.04319 7.12477C4.16416 5.8917 5.74752 5.27517 7.79329 5.27517ZM7.54107 7.56615C6.4201 7.56615 5.6074 7.91645 5.10297 8.61705C4.59853 9.31765 4.34632 10.4596 4.34632 12.043C4.34632 13.8506 4.59153 15.1397 5.08195 15.9103C5.58638 16.681 6.4131 17.0663 7.56209 17.0663C8.68305 17.0663 9.49575 16.716 10.0002 16.0154C10.5046 15.3008 10.7568 14.1378 10.7568 12.5264C10.7568 10.7469 10.5046 9.47879 10.0002 8.72214C9.50977 7.95148 8.69006 7.56615 7.54107 7.56615ZM23.3905 14.6913L23.4956 19H20.7212L20.8473 14.9645L20.7843 11.0762H19.0188L18.9557 11.6226C18.7175 13.6124 18.4583 15.1327 18.178 16.1836C17.9118 17.2345 17.5755 17.9911 17.1692 18.4535C16.7628 18.9019 16.2163 19.1611 15.5298 19.2312H14.8992L14.4999 17.0874C15.0043 16.9332 15.3966 16.667 15.6769 16.2887C15.9571 15.9103 16.1883 15.3358 16.3705 14.5652C16.5526 13.7805 16.7208 12.6455 16.8749 11.1602L17.0851 9.26861L17.0641 9.22658H23.5166L23.3905 14.6913ZM30.9199 12.7997C32.0269 12.7997 32.8676 13.0309 33.4421 13.4933C34.0306 13.9416 34.3249 14.6002 34.3249 15.469C34.3249 16.5759 33.9115 17.4447 33.0848 18.0752C32.2581 18.6917 31.1231 19 29.6799 19H26.0858L26.2329 14.9645L26.1278 9.22658H28.8812L28.7971 12.7997H30.9199ZM30.2684 17.3186C30.7168 17.2345 31.0601 17.0593 31.2983 16.7931C31.5505 16.5129 31.6766 16.1766 31.6766 15.7842C31.6766 15.3639 31.5365 15.0346 31.2562 14.7964C30.99 14.5442 30.6187 14.4251 30.1423 14.4391L28.7551 14.4601V14.6913L28.8392 17.2555L30.2684 17.3186ZM42.1233 9.41574L41.9551 11.2233L39.7482 11.1602H38.4451L38.361 14.6913L38.4871 19H35.6917L35.8388 14.9645L35.7337 9.22658H41.9761L42.1233 9.41574ZM47.1295 9.03741C48.2084 9.03741 49.0492 9.28262 49.6517 9.77305C50.2682 10.2495 50.5765 10.922 50.5765 11.7908C50.5765 12.043 50.5344 12.8417 50.4504 14.1869C50.4364 14.5792 50.4153 14.9855 50.3873 15.4059C50.3593 15.8123 50.3453 16.1626 50.3453 16.4568C50.3453 16.695 50.3803 16.8632 50.4504 16.9612C50.5204 17.0453 50.6465 17.0874 50.8287 17.0874C50.9688 17.0874 51.151 17.0593 51.3752 17.0033L51.5854 17.1714L51.3331 18.6427C50.8847 18.9369 50.3733 19.1121 49.7988 19.1681C49.3784 19.1261 49.0281 18.979 48.7479 18.7268C48.4677 18.4605 48.2785 18.0962 48.1804 17.6338H48.0333C47.3327 18.3765 46.6111 18.8949 45.8684 19.1892C44.8596 19.1752 44.0679 18.9089 43.4934 18.3905C42.9189 17.872 42.6316 17.1644 42.6316 16.2676C42.6316 15.567 42.8068 15.0206 43.1571 14.6282C43.5214 14.2219 44.0679 13.9486 44.7965 13.8085L48.0123 13.199V12.3373C48.0123 11.4265 47.5639 10.9711 46.6671 10.9711C46.2327 10.9711 45.7703 11.0692 45.2799 11.2653C44.8035 11.4615 44.264 11.7698 43.6615 12.1901L43.4513 12.064L43.1361 10.2144C43.7386 9.8361 44.3831 9.54885 45.0697 9.35269C45.7563 9.1425 46.4429 9.03741 47.1295 9.03741ZM45.7633 15.0906C45.5391 15.1467 45.371 15.2448 45.2589 15.3849C45.1608 15.511 45.1118 15.7072 45.1118 15.9734C45.1118 16.3377 45.2099 16.625 45.406 16.8351C45.6022 17.0313 45.8754 17.1294 46.2257 17.1294C46.7722 17.1294 47.3467 16.8071 47.9492 16.1626L47.9913 14.6072L45.7633 15.0906ZM68.1897 14.7123L68.2737 19H65.4363L65.5624 14.9645L65.5414 13.3882L62.4937 13.3671L59.7404 13.4092L59.7194 14.7123L59.8244 19H56.987L57.1341 14.9645L56.987 5.46433H59.8665L59.7824 11.0552L62.6829 11.0972L65.5204 11.0552L65.4363 5.46433H68.3368L68.1897 14.7123ZM78.456 14.4601L72.7811 14.5021C72.9072 16.2536 73.797 17.1294 75.4504 17.1294C76.3192 17.1294 77.286 16.8842 78.3509 16.3938L78.5821 16.5409L78.1618 18.6217C77.0968 19.014 76.095 19.2102 75.1562 19.2102C73.6148 19.2102 72.4028 18.7618 71.52 17.865C70.6513 16.9682 70.2169 15.7282 70.2169 14.1448C70.2169 12.5755 70.6443 11.3354 71.499 10.4246C72.3538 9.49981 73.5098 9.03741 74.967 9.03741C76.2141 9.03741 77.1739 9.38071 77.8465 10.0673C78.5331 10.7399 78.8764 11.6857 78.8764 12.9047C78.8764 13.227 78.8414 13.6334 78.7713 14.1238L78.456 14.4601ZM76.4383 12.5895C76.4383 12.029 76.3122 11.6086 76.06 11.3284C75.8077 11.0341 75.4364 10.887 74.946 10.887C74.3995 10.887 73.9441 11.0692 73.5798 11.4335C73.2155 11.7838 72.9703 12.2952 72.8442 12.9678L76.3962 12.8837L76.4383 12.5895ZM87.2564 13.9557C88.5455 14.2779 89.19 15.0276 89.19 16.2046C89.19 17.1994 88.7907 17.9281 87.992 18.3905C87.1933 18.8529 86.0093 19.0841 84.4399 19.0841C83.6973 19.0841 82.5273 19.056 80.9299 19L81.077 14.9645L80.972 9.22658H85.3437C86.4647 9.22658 87.3264 9.43676 87.929 9.85712C88.5315 10.2775 88.8327 10.887 88.8327 11.6857C88.8327 12.1761 88.6926 12.6245 88.4124 13.0309C88.1461 13.4232 87.7608 13.7315 87.2564 13.9557ZM84.2928 10.866C83.9846 10.866 83.7393 10.873 83.5572 10.887L83.5152 13.3251L85.1125 13.3882C85.8972 13.178 86.2895 12.7296 86.2895 12.043C86.2895 11.6226 86.1354 11.3214 85.8271 11.1392C85.5329 10.9571 85.0214 10.866 84.2928 10.866ZM84.7973 17.4657C85.3858 17.4657 85.8412 17.3536 86.1634 17.1294C86.4857 16.8912 86.6468 16.5479 86.6468 16.0995C86.6468 15.7772 86.5488 15.525 86.3526 15.3428C86.1564 15.1467 85.8412 15.0066 85.4068 14.9225L83.4731 14.9435L83.5362 17.3816C83.9425 17.4377 84.3629 17.4657 84.7973 17.4657ZM95.9012 13.9557C96.5598 14.1378 97.0432 14.411 97.3515 14.7754C97.6738 15.1397 97.8349 15.6161 97.8349 16.2046C97.8349 17.1434 97.4496 17.872 96.6789 18.3905C95.9222 18.9089 94.8503 19.1681 93.4631 19.1681C92.8886 19.1681 92.3351 19.1191 91.8027 19.021C91.2842 18.9369 90.8429 18.8108 90.4785 18.6427L90.9199 16.625L91.1091 16.5409C91.4174 16.709 91.7817 16.8421 92.202 16.9402C92.6224 17.0383 93.0358 17.0874 93.4421 17.0874C94.0166 17.0874 94.472 16.9893 94.8083 16.7931C95.1446 16.5969 95.3127 16.3237 95.3127 15.9734C95.3127 15.483 95.0045 15.1537 94.3879 14.9855H92.0549L91.9078 14.8174L92.0759 13.1149L94.1988 13.1359C94.4229 13.0379 94.5981 12.8977 94.7242 12.7156C94.8503 12.5194 94.9134 12.3022 94.9134 12.064C94.9134 11.7558 94.7943 11.5386 94.5561 11.4125C94.3319 11.2723 93.9606 11.2023 93.4421 11.2023C92.7135 11.2023 91.8798 11.3494 90.9409 11.6437L90.7097 11.5386L90.8989 9.52083C91.7116 9.24059 92.5874 9.10047 93.5262 9.10047C94.7733 9.10047 95.7401 9.32466 96.4267 9.77305C97.1133 10.2214 97.4566 10.852 97.4566 11.6647C97.4566 12.1831 97.3164 12.6385 97.0362 13.0309C96.77 13.4232 96.3916 13.7315 95.9012 13.9557ZM103.765 9.03741C105.195 9.03741 106.287 9.45778 107.044 10.2985C107.801 11.1392 108.179 12.3513 108.179 13.9346C108.179 15.6441 107.773 16.9542 106.96 17.865C106.147 18.7618 104.977 19.2102 103.45 19.2102C102.021 19.2102 100.928 18.7898 100.171 17.9491C99.4145 17.1084 99.0362 15.8963 99.0362 14.313C99.0362 12.6035 99.4426 11.3004 100.255 10.4036C101.068 9.49281 102.238 9.03741 103.765 9.03741ZM103.576 10.929C102.904 10.929 102.413 11.1532 102.105 11.6016C101.811 12.05 101.663 12.7716 101.663 13.7665C101.663 15.0556 101.818 15.9734 102.126 16.5199C102.434 17.0663 102.939 17.3396 103.639 17.3396C104.312 17.3396 104.795 17.1224 105.089 16.688C105.398 16.2396 105.552 15.511 105.552 14.5021C105.552 13.227 105.391 12.3162 105.068 11.7698C104.76 11.2093 104.263 10.929 103.576 10.929ZM115.288 9.10047C116.507 9.10047 117.446 9.51382 118.104 10.3405C118.763 11.1672 119.092 12.3373 119.092 13.8506C119.092 15.56 118.665 16.8842 117.81 17.823C116.969 18.7478 115.778 19.2102 114.237 19.2102C113.788 19.2102 113.319 19.1681 112.829 19.0841L112.892 22.8884H110.117L110.264 14.9645L110.138 9.41574L112.808 9.18454L112.786 10.6138H112.934C113.326 10.2354 113.704 9.93419 114.069 9.70999C114.433 9.47179 114.839 9.26861 115.288 9.10047ZM114.258 17.3816C114.986 17.3816 115.54 17.1224 115.918 16.6039C116.297 16.0855 116.486 15.3218 116.486 14.313C116.486 13.3321 116.325 12.5965 116.002 12.1061C115.694 11.6016 115.232 11.3494 114.615 11.3494C114.013 11.3494 113.403 11.6507 112.786 12.2532L112.765 14.6913L112.808 17.0663C113.312 17.2765 113.795 17.3816 114.258 17.3816ZM125.009 9.03741C126.438 9.03741 127.531 9.45778 128.288 10.2985C129.045 11.1392 129.423 12.3513 129.423 13.9346C129.423 15.6441 129.017 16.9542 128.204 17.865C127.391 18.7618 126.221 19.2102 124.694 19.2102C123.265 19.2102 122.172 18.7898 121.415 17.9491C120.658 17.1084 120.28 15.8963 120.28 14.313C120.28 12.6035 120.686 11.3004 121.499 10.4036C122.312 9.49281 123.482 9.03741 125.009 9.03741ZM124.82 10.929C124.147 10.929 123.657 11.1532 123.349 11.6016C123.054 12.05 122.907 12.7716 122.907 13.7665C122.907 15.0556 123.061 15.9734 123.37 16.5199C123.678 17.0663 124.182 17.3396 124.883 17.3396C125.556 17.3396 126.039 17.1224 126.333 16.688C126.642 16.2396 126.796 15.511 126.796 14.5021C126.796 13.227 126.635 12.3162 126.312 11.7698C126.004 11.2093 125.507 10.929 124.82 10.929ZM137.564 13.9557C138.853 14.2779 139.498 15.0276 139.498 16.2046C139.498 17.1994 139.099 17.9281 138.3 18.3905C137.501 18.8529 136.317 19.0841 134.748 19.0841C134.005 19.0841 132.835 19.056 131.238 19L131.385 14.9645L131.28 9.22658H135.652C136.773 9.22658 137.634 9.43676 138.237 9.85712C138.839 10.2775 139.141 10.887 139.141 11.6857C139.141 12.1761 139.001 12.6245 138.72 13.0309C138.454 13.4232 138.069 13.7315 137.564 13.9557ZM134.601 10.866C134.293 10.866 134.047 10.873 133.865 10.887L133.823 13.3251L135.421 13.3882C136.205 13.178 136.598 12.7296 136.598 12.043C136.598 11.6226 136.443 11.3214 136.135 11.1392C135.841 10.9571 135.329 10.866 134.601 10.866ZM135.105 17.4657C135.694 17.4657 136.149 17.3536 136.471 17.1294C136.794 16.8912 136.955 16.5479 136.955 16.0995C136.955 15.7772 136.857 15.525 136.661 15.3428C136.464 15.1467 136.149 15.0066 135.715 14.9225L133.781 14.9435L133.844 17.3816C134.251 17.4377 134.671 17.4657 135.105 17.4657ZM145.2 9.03741C146.279 9.03741 147.12 9.28262 147.723 9.77305C148.339 10.2495 148.647 10.922 148.647 11.7908C148.647 12.043 148.605 12.8417 148.521 14.1869C148.507 14.5792 148.486 14.9855 148.458 15.4059C148.43 15.8123 148.416 16.1626 148.416 16.4568C148.416 16.695 148.451 16.8632 148.521 16.9612C148.591 17.0453 148.717 17.0874 148.9 17.0874C149.04 17.0874 149.222 17.0593 149.446 17.0033L149.656 17.1714L149.404 18.6427C148.956 18.9369 148.444 19.1121 147.87 19.1681C147.449 19.1261 147.099 18.979 146.819 18.7268C146.539 18.4605 146.349 18.0962 146.251 17.6338H146.104C145.404 18.3765 144.682 18.8949 143.939 19.1892C142.93 19.1752 142.139 18.9089 141.564 18.3905C140.99 17.872 140.702 17.1644 140.702 16.2676C140.702 15.567 140.878 15.0206 141.228 14.6282C141.592 14.2219 142.139 13.9486 142.867 13.8085L146.083 13.199V12.3373C146.083 11.4265 145.635 10.9711 144.738 10.9711C144.304 10.9711 143.841 11.0692 143.351 11.2653C142.874 11.4615 142.335 11.7698 141.732 12.1901L141.522 12.064L141.207 10.2144C141.809 9.8361 142.454 9.54885 143.141 9.35269C143.827 9.1425 144.514 9.03741 145.2 9.03741ZM143.834 15.0906C143.61 15.1467 143.442 15.2448 143.33 15.3849C143.232 15.511 143.183 15.7072 143.183 15.9734C143.183 16.3377 143.281 16.625 143.477 16.8351C143.673 17.0313 143.946 17.1294 144.297 17.1294C144.843 17.1294 145.418 16.8071 146.02 16.1626L146.062 14.6072L143.834 15.0906Z" fill="#292929"/>
<path d="M159 17L155.103 10.25L162.897 10.25L159 17Z" fill="#292929"/>
</g>
<defs>
<clipPath id="clip0_41772_250">
<rect width="163" height="25" fill="white" transform="translate(0.5)"/>
</clipPath>
</defs>
</svg>
